<svg xmlns="http://www.w3.org/2000/svg" width="375" height="190" viewBox="0 0 375 190">
  <path
    d="M23.54 65.09L23.54 65.09Q24.90 65.72 26.22 65.87L26.22 65.87Q26.71 65.72 26.71 65.53L26.71 65.53Q27.05 65.72 28.66 65.87L28.66 65.87L28.66 66.02Q28.66 66.31 28.22 66.31L28.22 66.31L28.22 67.04L28.66 68.55L28.66 68.75Q27.83 68.75 27.59 71.78L27.59 71.78L27.73 72.07Q27.29 72.71 27.15 75.54L27.15 75.54Q27.34 76.51 27.59 77.20L27.59 77.20Q27.25 79.00 27.00 79.79L27.00 79.79L27.15 81.30L27.15 83.11Q27.15 83.84 27.00 84.62L27.00 84.62Q27.44 87.16 27.44 91.60L27.44 91.60Q27.44 91.94 27.59 92.19L27.59 92.19Q27.25 99.17 26.07 99.17L26.07 99.17Q26.07 99.37 23.54 99.90L23.54 99.90Q23.54 100.10 22.90 100.20L22.90 100.20Q19.63 99.46 19.14 99.46L19.14 99.46L18.51 98.39L18.65 96.58Q18.36 96.58 18.36 96.29L18.36 96.29L18.36 96.00Q18.36 95.46 19.43 92.97L19.43 92.97Q20.12 90.43 20.51 80.66L20.51 80.66Q20.31 80.37 20.31 80.22L20.31 80.22Q12.74 81.30 12.01 81.30L12.01 81.30L12.01 82.03Q9.57 93.36 9.57 95.36L9.57 95.36L9.91 95.51L10.06 95.51Q10.35 95.51 10.35 95.07L10.35 95.07L10.50 95.07L10.50 95.51Q10.21 96.00 10.21 96.44L10.21 96.44Q10.21 97.51 11.08 97.51L11.08 97.51L11.08 97.95Q8.54 98.54 8.54 99.32L8.54 99.32L8.06 99.32Q8.06 98.73 4.30 98.54L4.30 98.54Q3.86 96.88 3.22 95.51L3.22 95.51L3.22 95.21Q4.59 92.72 7.18 77.34L7.18 77.34Q7.18 76.46 7.62 72.95L7.62 72.95L7.62 69.04L7.18 68.26Q7.57 67.04 8.20 67.04L8.20 67.04Q8.40 66.46 9.13 66.46L9.13 66.46Q10.35 67.04 10.79 67.04L10.79 67.04L12.74 67.04Q13.04 67.04 13.53 68.90L13.53 68.90Q13.96 68.90 13.96 69.34L13.96 69.34Q13.96 70.80 12.60 71.00L12.60 71.00Q12.60 72.80 12.16 72.80L12.16 72.80Q12.16 73.63 12.30 75.39L12.30 75.39L12.01 76.12Q12.11 77.00 12.45 77.49L12.45 77.49L13.23 77.34Q13.38 77.34 13.38 77.49L13.38 77.49L13.67 77.34L14.89 77.34Q21.09 77.00 21.09 76.12L21.09 76.12L21.53 68.41L21.09 67.68Q21.24 67.38 21.24 67.04L21.24 67.04L21.09 67.04Q22.36 65.53 23.54 65.09ZM57.71 66.16L58.15 65.53Q60.89 65.53 60.89 67.38L60.89 67.38Q60.89 67.53 60.30 68.26L60.30 68.26Q60.45 69.34 60.45 69.48L60.45 69.48Q60.06 71.00 59.08 71.00L59.08 71.00Q57.91 70.56 57.42 70.56L57.42 70.56Q55.18 71.63 49.22 72.22L49.22 72.22L47.85 72.07Q47.56 72.07 46.83 72.36L46.83 72.36Q46.53 72.22 45.46 72.07L45.46 72.07Q43.70 72.07 42.29 73.10L42.29 73.10L42.43 73.44L42.43 74.17Q42.43 74.90 42.29 75.68L42.29 75.68Q42.58 76.90 42.58 78.27L42.58 78.27L42.58 78.71L44.09 78.71Q45.36 78.71 46.04 78.42L46.04 78.42L46.97 78.56Q56.79 77.83 56.79 77.20L56.79 77.20Q57.57 76.76 58.01 76.76L58.01 76.76L59.08 76.76Q59.67 76.76 59.81 79.64L59.81 79.64Q60.01 79.64 60.11 80.22L60.11 80.22Q59.91 81.35 58.79 82.18L58.79 82.18Q58.20 81.88 57.57 81.88L57.57 81.88Q56.54 82.81 55.42 82.81L55.42 82.81Q54.44 82.52 54.05 82.52L54.05 82.52Q53.03 82.81 52.88 82.81L52.88 82.81L51.03 82.81Q50.73 82.86 50.73 83.11L50.73 83.11Q48.97 82.81 48.63 82.81L48.63 82.81Q48.63 83.01 48.19 83.25L48.19 83.25L47.27 83.25Q46.78 83.25 46.48 83.40L46.48 83.40L45.61 83.25L44.09 83.25Q43.07 83.25 41.36 84.47L41.36 84.47Q41.36 86.38 39.70 92.19L39.70 92.19L39.99 92.33Q39.99 91.70 49.71 90.97L49.71 90.97Q49.71 90.82 51.03 90.82L51.03 90.82L53.91 90.82Q55.62 90.82 57.57 91.26L57.57 91.26Q60.06 89.60 61.62 89.60L61.62 89.60L61.96 90.23Q61.62 90.77 61.62 91.46L61.62 91.46L61.62 91.75Q62.26 93.31 62.40 94.48L62.40 94.48Q62.01 96.44 61.47 96.44L61.47 96.44Q61.33 96.44 59.08 95.51L59.08 95.51Q58.94 96.29 58.79 96.29L58.79 96.29Q55.37 96.00 54.54 96.00L54.54 96.00Q54.00 96.00 53.17 96.14L53.17 96.14Q52.39 96.00 51.37 96.00L51.37 96.00L50.88 96.00Q47.56 96.29 45.31 96.88L45.31 96.88Q44.48 96.73 44.09 96.73L44.09 96.73Q42.19 97.51 42.14 97.51L42.14 97.51Q39.55 97.02 37.74 97.02L37.74 97.02Q36.62 97.51 35.89 97.51L35.89 97.51Q33.74 95.31 33.35 94.48L33.35 94.48Q36.23 86.87 36.23 82.52L36.23 82.52Q37.26 79.00 37.26 72.80L37.26 72.80L37.26 72.07Q37.26 70.12 36.52 69.48L36.52 69.48L36.52 69.19Q36.52 69.09 38.48 66.60L38.48 66.60Q38.48 66.41 39.11 65.87L39.11 65.87Q40.09 66.89 43.80 67.53L43.80 67.53Q43.80 67.82 44.53 67.82L44.53 67.82L45.90 67.82Q52.34 66.60 57.71 66.16L57.71 66.16ZM73.49 63.43L73.49 63.43Q74.51 64.40 78.76 65.43L78.76 65.43Q79.98 66.11 79.98 67.53L79.98 67.53L79.98 67.68Q79.98 69.38 77.25 69.78L77.25 69.78L76.95 70.26L76.95 71.29Q75.59 76.71 75.59 79.20L75.59 79.20L75.73 80.57L74.85 85.40L75 86.13Q74.22 91.50 74.22 92.04L74.22 92.04L74.37 92.04Q77.00 92.04 87.11 91.89L87.11 91.89Q88.18 92.04 88.33 92.04L88.33 92.04Q90.77 90.38 91.65 90.38L91.65 90.38L91.94 90.38Q92.24 90.97 92.38 90.97L92.38 90.97Q92.24 92.48 92.24 93.26L92.24 93.26L92.24 93.70Q92.24 94.53 92.68 96.00L92.68 96.00Q92.68 96.58 91.50 97.51L91.50 97.51Q90.72 97.51 90.72 97.22L90.72 97.22L89.21 97.36L87.26 97.36Q85.55 97.36 82.86 97.22L82.86 97.22L82.57 97.36Q82.03 97.22 81.93 97.22L81.93 97.22Q78.81 97.51 76.81 97.51L76.81 97.51L75.73 97.51Q75 97.51 73.19 97.95L73.19 97.95L71.68 97.80Q69.82 98.24 69.82 98.39L69.82 98.39Q69.63 98.39 68.02 96.00L68.02 96.00Q66.65 94.97 66.65 94.19L66.65 94.19Q66.65 93.75 67.58 92.04L67.58 92.04Q67.58 91.11 68.80 89.31L68.80 89.31Q71.19 78.32 71.19 68.60L71.19 68.60Q71.34 68.60 71.34 67.82L71.34 67.82L70.46 67.09Q70.65 66.31 72.85 64.50L72.85 64.50Q72.85 63.43 73.49 63.43ZM103.71 63.43L103.71 63.43Q104.74 64.40 108.98 65.43L108.98 65.43Q110.21 66.11 110.21 67.53L110.21 67.53L110.21 67.68Q110.21 69.38 107.47 69.78L107.47 69.78L107.18 70.26L107.18 71.29Q105.81 76.71 105.81 79.20L105.81 79.20L105.96 80.57L105.08 85.40L105.22 86.13Q104.44 91.50 104.44 92.04L104.44 92.04L104.59 92.04Q107.23 92.04 117.33 91.89L117.33 91.89Q118.41 92.04 118.55 92.04L118.55 92.04Q121.00 90.38 121.88 90.38L121.88 90.38L122.17 90.38Q122.46 90.97 122.61 90.97L122.61 90.97Q122.46 92.48 122.46 93.26L122.46 93.26L122.46 93.70Q122.46 94.53 122.90 96.00L122.90 96.00Q122.90 96.58 121.73 97.51L121.73 97.51Q120.95 97.51 120.95 97.22L120.95 97.22L119.43 97.36L117.48 97.36Q115.77 97.36 113.09 97.22L113.09 97.22L112.79 97.36Q112.26 97.22 112.16 97.22L112.16 97.22Q109.03 97.51 107.03 97.51L107.03 97.51L105.96 97.51Q105.22 97.51 103.42 97.95L103.42 97.95L101.90 97.80Q100.05 98.24 100.05 98.39L100.05 98.39Q99.85 98.39 98.24 96.00L98.24 96.00Q96.88 94.97 96.88 94.19L96.88 94.19Q96.88 93.75 97.80 92.04L97.80 92.04Q97.80 91.11 99.02 89.31L99.02 89.31Q101.42 78.32 101.42 68.60L101.42 68.60Q101.56 68.60 101.56 67.82L101.56 67.82L100.68 67.09Q100.88 66.31 103.08 64.50L103.08 64.50Q103.08 63.43 103.71 63.43ZM140.38 65.48L140.38 65.48Q143.70 66.26 144.43 66.26L144.43 66.26Q147.27 66.26 148.97 68.07L148.97 68.07Q149.37 68.07 149.76 69.14L149.76 69.14Q152.59 71.34 154.15 79.74L154.15 79.74Q154.30 81.59 154.30 81.84L154.30 81.84Q154.30 88.09 148.54 95.61L148.54 95.61Q147.36 97.85 143.70 98.93L143.70 98.93Q141.31 99.56 140.53 99.56L140.53 99.56L140.09 99.56Q137.11 99.56 132.52 95.61L132.52 95.61Q129.30 92.68 129.30 90.77L129.30 90.77Q128.52 89.75 127.78 86.67L127.78 86.67Q127.78 76.22 130.52 72.17L130.52 72.17Q131.30 69.24 134.33 67.14L134.33 67.14Q135.30 66.36 139.31 65.82L139.31 65.82Q139.31 65.48 140.38 65.48ZM135.06 80.47L135.06 80.47L135.06 83.98Q136.52 91.85 140.23 91.85L140.23 91.85L140.67 91.85Q145.17 91.85 146.73 86.38L146.73 86.38Q147.80 83.11 147.80 82.62L147.80 82.62L147.80 80.62Q146.34 72.17 145.07 72.17L145.07 72.17Q143.41 70.36 142.63 70.36L142.63 70.36Q141.80 70.36 140.38 70.80L140.38 70.80L140.23 70.80L139.60 70.36L139.16 70.36Q135.06 72.80 135.06 80.47ZM168.95 59.47L169.24 59.47Q175.10 61.82 175.10 63.53L175.10 63.53L175.10 64.36Q175.10 65.87 171.88 66.26L171.88 66.26Q169.92 67.43 169.92 72.46L169.92 72.46Q169.92 72.80 169.38 76.46L169.38 76.46L169.53 76.46L169.38 76.81L169.38 77.64L169.53 78.71L170.07 78.71Q175.39 68.99 179.44 63.04L179.44 63.04Q179.49 62.21 179.79 62.21L179.79 62.21L179.44 61.57Q180.52 60.01 181.88 59.67L181.88 59.67L182.18 59.81Q182.67 59.81 183.20 59.47L183.20 59.47L183.98 59.96Q184.28 59.81 184.67 59.81L184.67 59.81Q184.67 60.50 186.43 61.28L186.43 61.28Q186.43 61.72 187.74 62.74L187.74 62.74Q187.35 63.23 187.35 63.67L187.35 63.67Q187.89 63.67 187.89 64.65L187.89 64.65L189.01 64.50L189.01 64.79L190.28 64.79Q194.24 64.21 194.24 63.53L194.24 63.53L194.53 63.67Q194.53 62.99 198.24 61.72L198.24 61.72Q199.56 62.35 201.32 62.74L201.32 62.74Q202.73 64.89 203.27 65.28L203.27 65.28Q204.00 65.28 204.39 66.46L204.39 66.46Q204.69 66.46 205.03 67.58L205.03 67.58Q203.96 68.90 203.96 69.82L203.96 69.82L204.10 69.82Q203.71 70.95 203.08 71.14L203.08 71.14L202.93 70.46Q203.17 70.46 203.42 69.97L203.42 69.97L203.08 69.82L202.78 69.82Q202.15 70.26 200.83 70.61L200.83 70.61L200.83 70.46Q196.92 72.22 196.63 72.22L196.63 72.22Q195.85 72.22 195.85 71.92L195.85 71.92Q194.24 72.46 194.24 72.61L194.24 72.61L193.36 72.46L192.77 72.46Q190.97 72.95 190.97 74.85L190.97 74.85Q190.77 75.68 190.77 75.83L190.77 75.83L190.97 77.29Q190.77 79.69 190.77 80.86L190.77 80.86Q190.77 81.74 191.11 83.25L191.11 83.25L191.31 83.25L191.75 82.96Q192.24 91.02 192.92 91.89L192.92 91.89Q193.55 91.89 193.55 92.82L193.55 92.82Q193.21 92.97 193.07 92.97L193.07 92.97L193.07 93.80Q193.07 94.63 192.92 95.26L192.92 95.26L193.55 100.78L192.58 103.71L191.89 104.15L191.75 104.15Q191.26 103.52 190.28 102.83L190.28 102.83L190.28 102.69L189.99 102.69L189.36 103.86Q189.11 103.22 188.82 103.22L188.82 103.22L188.67 103.22Q188.38 104.44 188.38 104.64L188.38 104.64Q188.53 104.64 188.53 104.83L188.53 104.83L187.89 104.83L188.04 104.49Q188.04 104.10 187.21 102.39L187.21 102.39L187.06 102.39L186.91 103.22Q187.06 103.52 187.06 103.71L187.06 103.71Q186.28 104.15 185.74 104.15L185.74 104.15Q185.60 104.15 185.60 104.00L185.60 104.00L185.30 104.15Q183.50 103.91 183.50 103.37L183.50 103.37L183.50 103.22Q184.08 103.22 184.52 102.05L184.52 102.05L184.81 102.25L184.96 102.25L184.96 101.90Q184.62 101.90 183.64 100.78L183.64 100.78Q183.11 100.78 181.88 99.32L181.88 99.32Q182.18 99.32 182.18 98.97L182.18 98.97Q179.00 96.97 178.81 96.53L178.81 96.53L178.81 96.39L178.96 96.39Q179.05 96.39 180.57 97.51L180.57 97.51L180.91 97.51Q181.15 97.51 181.40 97.07L181.40 97.07L181.40 96.73Q181.10 96.73 179.93 95.75L179.93 95.75L179.93 95.61Q179.93 95.46 180.13 95.46L180.13 95.46Q179.98 94.78 178.66 94.78L178.66 94.78Q178.13 95.12 177.64 95.12L177.64 95.12Q175.24 93.70 175.24 91.89L175.24 91.89Q174.12 91.06 174.12 90.87L174.12 90.87Q174.41 90.72 174.56 90.72L174.56 90.72L174.56 90.43L174.12 89.75L174.12 89.40Q174.85 89.40 176.03 84.86L176.03 84.86Q176.71 81.64 178.03 80.03L178.03 80.03L178.03 79.88L178.32 80.03L178.81 79.69Q179.44 80.57 180.13 80.57L180.13 80.57Q180.27 80.03 181.05 79.25L181.05 79.25L181.25 79.25L181.40 79.88Q181.10 80.03 180.91 80.03L180.91 80.03L180.91 80.71L181.25 80.71L181.40 80.03L181.74 80.18Q181.79 79.88 182.03 79.88L182.03 79.88L182.37 79.88L182.37 80.03Q181.05 83.11 181.05 83.59L181.05 83.59Q181.05 84.42 181.25 84.42L181.25 84.42L181.40 84.42L181.40 84.72Q181.40 85.40 180.71 87.35L180.71 87.35L180.91 87.35Q180.52 87.35 180.13 92.68L180.13 92.68Q180.42 93.16 180.42 93.51L180.42 93.51Q179.98 93.80 179.79 93.80L179.79 93.80L179.79 93.99Q181.01 94.58 181.74 94.58L181.74 94.58L182.18 94.58L182.18 94.43Q181.59 94.43 181.59 93.99L181.59 93.99L181.59 93.80L181.74 93.80L182.86 93.99L183.06 93.65Q181.64 92.97 181.59 92.68L181.59 92.68L181.74 92.68Q182.91 92.68 183.84 93.51L183.84 93.51L184.13 93.51Q184.52 93.51 184.67 92.53L184.67 92.53L184.67 92.04L184.81 92.04Q185.45 82.91 185.74 80.71L185.74 80.71Q185.60 79.05 185.60 78.08L185.60 78.08L185.60 77.93Q185.60 76.86 185.74 75.98L185.74 75.98Q185.60 75.15 185.60 74.07L185.60 74.07L185.60 73.39L185.45 73.10Q184.96 73.24 184.96 73.39L184.96 73.39Q184.28 73.19 184.28 72.90L184.28 72.90L186.43 70.61L186.28 70.31L186.43 70.31Q186.87 70.31 187.35 70.61L187.35 70.61Q187.35 70.41 187.89 70.17L187.89 70.17L188.04 70.17Q188.04 70.41 188.38 70.61L188.38 70.61L189.01 70.31Q190.28 70.61 191.11 70.61L191.11 70.61Q194.53 67.19 194.53 66.89L194.53 66.89L194.38 66.89Q194.14 66.89 193.85 67.04L193.85 67.04L192.92 66.89Q192.92 67.04 192.77 67.04L192.77 67.04Q192.77 66.60 192.09 66.60L192.09 66.60Q191.60 66.80 190.43 67.72L190.43 67.72L189.84 67.38Q189.65 67.97 186.28 69.19L186.28 69.19Q186.28 69.43 183.50 70.46L183.50 70.46Q181.88 71.78 181.40 71.78L181.40 71.78L180.42 71.63Q176.51 76.12 173.14 77.10L173.14 77.10Q169.87 79.69 169.38 80.57L169.38 80.57L169.73 86.82Q169.53 87.50 169.53 87.94L169.53 87.94L169.92 88.82Q169.73 89.06 169.73 89.40L169.73 89.40L169.73 89.60Q169.73 89.84 170.21 90.04L170.21 90.04Q171.83 87.94 172.95 84.72L172.95 84.72Q173.34 84.72 173.34 84.42L173.34 84.42L173.63 84.57Q173.93 84.57 173.93 84.28L173.93 84.28L173.93 84.08Q173.93 83.94 173.78 83.94L173.78 83.94Q173.93 83.64 173.93 83.40L173.93 83.40L174.41 83.40L174.41 83.59L174.27 84.72L174.41 84.72L173.49 89.26L173.63 89.60L173.49 90.43L173.63 92.04L173.49 92.33L173.78 92.97Q173.63 95.90 173.34 97.71L173.34 97.71L173.49 98.00L172.95 101.76L173.14 102.69L172.66 102.69Q172.46 102.69 172.46 102.54L172.46 102.54Q171.88 102.69 171.88 103.37L171.88 103.37L170.70 103.22Q170.70 104.05 170.21 104.15L170.21 104.15L170.07 104.15Q169.92 104.15 169.92 104.00L169.92 104.00Q169.38 104.15 169.38 104.30L169.38 104.30Q168.95 104.30 167.77 102.83L167.77 102.83L167.29 102.83Q167.29 103.52 166.85 103.52L166.85 103.52L165.87 103.52L165.87 103.37Q166.46 103.37 166.46 103.03L166.46 103.03L166.46 102.83Q165.53 102.29 164.40 100.29L164.40 100.29Q163.23 97.51 163.23 95.90L163.23 95.90Q163.23 95.65 163.62 95.12L163.62 95.12L163.23 93.99Q164.70 91.85 164.70 86.67L164.70 86.67Q164.55 85.55 164.55 84.86L164.55 84.86Q164.55 84.08 164.84 73.54L164.84 73.54Q165.04 73.24 165.04 73.10L165.04 73.10Q164.84 73.10 164.84 72.90L164.84 72.90Q161.82 74.17 159.23 78.42L159.23 78.42L159.23 78.71L159.03 78.71L158.74 78.56Q158.74 75.73 167.29 62.06L167.29 62.06Q167.29 61.38 166.99 60.45L166.99 60.45Q167.43 60.45 168.95 59.47L168.95 59.47ZM191.60 65.28L191.60 65.28L191.60 65.63L192.24 65.63L191.75 66.26L191.75 66.46L191.89 66.46Q192.38 66.36 192.58 65.77L192.58 65.77Q192.38 65.77 192.38 65.63L192.38 65.63Q192.77 65.63 192.77 65.28L192.77 65.28Q192.58 64.99 192.58 64.79L192.58 64.79Q191.60 65.04 191.60 65.28ZM202.78 71.92L202.78 71.92L202.93 71.92L202.93 72.07Q202.93 72.46 202.64 73.68L202.64 73.68L202.78 73.68Q202.10 77.44 201.95 77.93L201.95 77.93Q201.95 78.03 202.10 78.91L202.10 78.91Q201.95 80.62 201.95 80.86L201.95 80.86Q202.20 82.18 202.49 82.18L202.49 82.18Q202.29 82.32 201.95 86.04L201.95 86.04Q202.29 86.08 202.29 86.33L202.29 86.33L202.29 86.67Q202.29 87.45 202.10 88.28L202.10 88.28L202.49 89.75L201.95 91.65Q201.95 92.24 202.29 95.12L202.29 95.12Q201.46 95.56 201.46 96.39L201.46 96.39L200.49 95.61L200.20 96.04L200.20 96.24Q200.20 96.39 200.34 96.39L200.34 96.39Q200.20 96.68 200.20 96.88L200.20 96.88L200 96.88L199.56 96.53L198.88 96.88Q197.46 96.73 197.46 94.78L197.46 94.78Q197.12 94.58 196.78 94.58L196.78 94.58Q197.07 94.24 197.07 93.99L197.07 93.99Q196.29 92.68 196.29 91.89L196.29 91.89L196.14 91.89Q196.00 91.89 195.17 92.97L195.17 92.97Q195.31 93.31 195.31 93.65L195.31 93.65L195.02 93.80Q193.85 92.63 193.85 91.65L193.85 91.65L194.24 91.65Q193.90 91.06 193.55 88.82L193.55 88.82L193.70 88.43L193.21 87.65L193.21 87.50Q193.21 86.96 193.70 86.33L193.70 86.33L193.70 85.21Q192.92 82.91 192.92 82.62L192.92 82.62Q192.92 81.88 194.24 81.35L194.24 81.35Q196.68 82.96 197.46 82.96L197.46 82.96Q198.10 82.96 199.85 78.08L199.85 78.08L201.03 75.68L202.10 73.54L201.95 72.90Q202.10 72.17 202.78 71.92ZM182.52 78.91L182.52 78.42L182.86 78.42L182.86 78.91L182.52 78.91ZM178.66 80.18L178.66 80.18Q178.66 80.37 178.47 80.71L178.47 80.71L178.81 80.86Q179.10 80.86 179.10 80.57L179.10 80.57L179.10 80.32Q178.96 80.32 178.66 80.18ZM181.59 83.79L181.59 83.79L181.74 83.79L181.74 84.28L181.40 84.28Q181.59 83.94 181.59 83.79ZM180.91 92.33L180.91 92.33L181.05 92.33Q181.40 92.38 181.40 92.68L181.40 92.68L181.25 92.68Q180.91 92.68 180.91 92.33ZM174.76 94.14L174.76 93.99L175.24 93.99L175.59 94.43L175.10 94.43Q175.10 94.14 174.76 94.14L174.76 94.14ZM182.67 94.78L182.37 94.78L182.37 94.92Q182.42 95.26 182.67 95.26L182.67 95.26Q183.06 95.26 183.06 94.92L183.06 94.92L182.67 94.78ZM176.42 95.12L176.42 94.92L176.56 94.92Q176.76 94.92 177.05 95.46L177.05 95.46L176.71 95.46Q176.42 95.46 176.42 95.12L176.42 95.12ZM177.49 95.75L177.49 95.61Q178.17 95.80 178.47 96.39L178.47 96.39L178.32 96.39Q177.59 96.04 177.49 95.75L177.49 95.75ZM180.91 98.83L180.91 98.68L181.25 98.68L181.25 98.83L180.91 98.83ZM165.87 101.61L165.87 101.61L165.87 101.76Q165.92 102.05 166.16 102.05L166.16 102.05L166.46 101.61L166.46 101.22L166.16 101.22Q165.87 101.27 165.87 101.61ZM239.75 104.54L239.55 104.44Q239.36 104.44 239.36 104.59L239.36 104.59L239.06 104.44L238.09 104.44L238.09 104.25Q238.28 103.96 238.28 103.76L238.28 103.76Q236.08 101.86 232.13 99.85L232.13 99.85Q232.13 99.71 230.18 98.24L230.18 98.24L230.18 98.10L230.32 98.10Q231.49 99.07 232.13 99.07L232.13 99.07Q232.13 98.24 230.52 97.80L230.52 97.80L230.18 97.27L229.83 97.46L229.64 97.46L229.64 97.12Q229.64 96.78 230.18 96.78L230.18 96.78L230.18 96.63Q229.88 96.63 228.86 96.00L228.86 96.00L228.71 96.34Q229.05 97.31 229.49 98.10L229.49 98.10Q229.49 98.49 229.35 98.73L229.35 98.73Q229.49 99.85 229.49 100.73L229.49 100.73Q229.49 102.39 227.73 103.13L227.73 103.13Q227.29 102.78 227.10 102.78L227.10 102.78L226.76 102.98Q225.24 102.69 223.68 101.32L223.68 101.32Q223.44 100.98 221.58 100.05L221.58 100.05Q221.09 99.27 221.09 98.88L221.09 98.88L221.24 98.10Q220.61 97.07 220.61 96.63L220.61 96.63L220.80 95.85Q219.48 93.41 218.99 93.41L218.99 93.41Q218.21 94.58 217.68 98.73L217.68 98.73Q216.70 102.10 215.38 102.10L215.38 102.10L214.45 102.10Q212.16 100.54 212.16 96.34L212.16 96.34L212.16 96.14Q211.91 95.90 211.08 94.04L211.08 94.04Q211.57 93.75 212.84 93.55L212.84 93.55Q212.84 93.07 212.35 93.07L212.35 93.07L212.35 92.92L213.96 92.92Q214.40 92.92 215.63 89.55L215.63 89.55L215.63 89.16Q215.63 88.62 214.16 87.74L214.16 87.74Q213.82 87.89 213.62 87.89L213.62 87.89Q212.70 85.94 210.89 85.60L210.89 85.60Q210.21 84.91 210.21 84.33L210.21 84.33Q210.99 84.33 211.67 81.88L211.67 81.88Q212.35 81.74 212.35 81.05L212.35 81.05L213.48 81.05Q213.77 79.64 213.77 78.37L213.77 78.37Q212.99 78.66 212.99 78.81L212.99 78.81L212.70 78.66L211.87 78.81Q211.43 78.13 210.74 76.22L210.74 76.22Q210.16 75.24 210.06 75.24L210.06 75.24L210.21 74.95L210.21 74.80L209.91 74.27L209.91 74.12Q210.60 73.68 210.74 72.36L210.74 72.36Q211.57 72.51 211.67 72.51L211.67 72.51Q216.06 72.51 216.06 70.41L216.06 70.41Q216.55 68.85 216.55 67.48L216.55 67.48Q216.21 66.94 216.21 66.50L216.21 66.50L216.21 65.72Q216.21 64.99 217.87 63.92L217.87 63.92Q219.53 64.60 222.85 65.53L222.85 65.53Q222.85 65.77 223.34 66.02L223.34 66.02Q223.34 68.80 221.88 68.80L221.88 68.80Q221.24 68.80 220.61 70.90L220.61 70.90L222.71 70.90L222.85 70.26L223.19 70.26Q224.07 70.95 226.56 71.58L226.56 71.58Q226.56 71.78 228.22 72.80L228.22 72.80L227.73 73.49Q228.37 74.22 228.37 74.27L228.37 74.27L228.37 74.41L227.39 74.41Q225.10 74.41 223.88 79.98L223.88 79.98Q223.14 80.42 221.39 86.43L221.39 86.43L224.51 89.84Q225.05 88.28 225.93 83.54L225.93 83.54L225.78 83.20L225.93 82.91L225.78 82.91Q225.93 82.57 225.93 82.37L225.93 82.37L226.27 82.37L226.12 83.98L226.12 84.52Q226.56 85.11 226.56 86.62L226.56 86.62Q226.42 87.45 226.42 87.55L226.42 87.55L226.56 87.89Q226.42 89.01 226.42 89.70L226.42 89.70L226.42 90.48Q226.42 91.99 227.88 93.41L227.88 93.41L227.59 93.41L227.59 93.55Q227.59 94.04 229.20 94.24L229.20 94.24L229.35 94.24L229.35 94.04Q229.20 93.70 229.20 93.55L229.20 93.55L229.35 93.55Q229.49 93.55 229.83 93.70L229.83 93.70Q230.71 93.55 231.30 93.55L231.30 93.55Q232.86 94.04 233.20 94.04L233.20 94.04L233.45 93.70Q235.16 94.24 236.28 94.24L236.28 94.24L236.82 94.24Q237.50 94.24 237.74 88.38L237.74 88.38L237.60 88.38L236.47 88.53L237.94 87.40Q238.28 85.79 238.28 84.52L238.28 84.52L238.28 84.13Q232.13 84.81 232.13 85.45L232.13 85.45L231.79 86.13Q231.98 86.43 231.98 86.62L231.98 86.62Q231.45 86.77 231.45 86.91L231.45 86.91L231.10 86.77L230.96 86.77Q230.18 86.82 230.18 87.06L230.18 87.06Q228.52 87.06 227.25 82.91L227.25 82.91Q226.90 82.81 226.56 82.08L226.56 82.08Q226.86 81.45 227.10 81.45L227.10 81.45L227.59 81.45L227.59 81.74L227.73 81.74Q228.22 81.74 228.22 80.62L228.22 80.62L228.37 80.62Q229.00 81.05 229.49 81.05L229.49 81.05L238.09 79.15Q237.74 76.22 237.60 76.22L237.60 76.22Q236.57 76.22 236.13 72.66L236.13 72.66L236.96 72.36Q237.26 72.51 237.60 72.51L237.60 72.51Q237.60 72.36 239.06 70.70L239.06 70.70Q241.06 68.41 242.29 66.70L242.29 66.70L242.29 66.50Q234.52 70.17 234.52 72.36L234.52 72.36L234.23 72.36Q234.23 71.39 232.28 71.19L232.28 71.19L232.28 71.04Q232.42 70.70 232.42 70.56L232.42 70.56Q231.74 68.65 230.32 66.85L230.32 66.85Q230.32 64.70 231.45 64.70L231.45 64.70Q232.57 65.09 233.45 65.09L233.45 65.09Q243.80 62.30 244.24 61.82L244.24 61.82L244.24 61.47Q248.78 61.67 248.78 63.09L248.78 63.09Q250.98 64.75 251.86 66.85L251.86 66.85Q249.80 68.12 247.66 68.12L247.66 68.12L244.38 69.92L244.09 69.73Q239.21 71.88 238.92 72.66L238.92 72.66Q242.48 73.68 242.48 75.24L242.48 75.24L242.48 75.88Q242.14 77.05 242.14 77.20L242.14 77.20L242.14 77.83Q242.19 78.17 242.48 78.17L242.48 78.17Q245.17 78.17 247.46 76.42L247.46 76.42Q248.14 76.71 248.49 76.71L248.49 76.71Q248.97 76.42 249.41 76.42L249.41 76.42L249.76 76.42Q249.76 76.90 250.54 76.90L250.54 76.90L250.54 76.71L250.39 76.42L250.73 76.42Q250.73 76.71 253.17 78.52L253.17 78.52Q253.17 79.83 253.66 79.83L253.66 79.83L254.25 81.45Q254.74 81.88 255.13 83.84L255.13 83.84Q254.69 84.81 254.10 84.81L254.10 84.81L253.17 84.81Q252.88 84.86 252.88 85.16L252.88 85.16Q253.03 85.40 253.03 85.79L253.03 85.79Q251.27 85.30 250.24 84.52L250.24 84.52Q249.37 84.67 248.78 84.67L248.78 84.67Q248.78 84.33 248.49 84.33L248.49 84.33Q248.10 84.33 247.80 84.52L247.80 84.52L247.46 84.33Q245.17 85.25 243.60 85.60L243.60 85.60L243.95 88.23Q243.60 89.55 243.60 90.33L243.60 90.33Q244.09 95.36 244.92 97.12L244.92 97.12L244.92 98.10Q243.70 98.10 243.31 101.51L243.31 101.51Q242.82 103.13 242.48 103.76L242.48 103.76L239.75 104.54ZM221.73 74.41L221.39 74.41Q221.39 75.34 219.78 75.88L219.78 75.88Q218.70 75.88 218.16 79.64L218.16 79.64Q217.38 81.40 217.24 83.20L217.24 83.20Q218.02 83.69 218.46 83.69L218.46 83.69L218.65 83.69Q221.73 74.90 221.73 74.41L221.73 74.41ZM244.78 82.67L243.16 83.20L243.16 84.13L243.31 84.13Q246.00 83.20 246.00 82.67L246.00 82.67L244.78 82.67ZM230.18 94.04L229.64 94.04L229.64 94.24Q229.74 94.53 229.98 94.53L229.98 94.53L230.18 94.53L230.18 94.04ZM230.81 94.38L230.52 94.38L230.52 94.73Q231.54 95.02 231.98 95.02L231.98 95.02L232.13 95.02L232.13 94.87Q231.10 94.38 230.81 94.38L230.81 94.38ZM228.37 94.87L228.37 94.87Q228.37 95.36 230.81 96.14L230.81 96.14L230.96 95.85Q230.27 95.26 228.37 94.87Z" />
</svg>