<?xml version="1.0" encoding="UTF-8" standalone="no"?>
<svg xmlns="http://www.w3.org/2000/svg" xmlns:xlink="http://www.w3.org/1999/xlink" width="156.047mm" height="93.211mm"
  viewBox="15.594753 -114.602966 156.046967 93.211464">
  <path transform="matrix(2.876463,0,0,-1,188.08197,-135.977722)"
    style="stroke:#000000;stroke-width:0.050000mm;fill:none"
    d="M-20.635742,-51.232422C-19.876463,-51.139324,-19.213469,-50.675499,-18.865723,-49.994141C-18.723511,-49.627647,-18.630762,-49.244011,-18.589844,-48.853027L-18.464844,-48.17627C-18.074951,-46.157406,-17.664185,-44.144428,-17.231934,-42.134277L-16.166504,-41.700684L-15.118652,-41.270508C-13.809586,-40.743362,-12.499252,-40.227493,-11.182129,-39.720703L-10.055664,-39.266113C-9.640182,-41.12487,-9.28244,-42.996017,-8.98291,-44.876953L-8.962402,-45.038086C-8.942634,-45.393845,-8.812575,-45.734684,-8.590332,-46.013184C-8.298425,-46.303326,-7.871417,-46.411526,-7.476563,-46.29541C-6.90602,-46.182503,-6.398057,-45.861439,-6.05127,-45.394531C-5.761102,-44.948807,-5.678113,-44.399227,-5.82373,-43.887695C-6.46286,-41.251404,-7.136993,-38.621246,-7.844727,-36.002441L-8.508301,-33.435059C-9.451141,-29.776478,-10.325409,-26.101063,-11.130859,-22.409668L-11.189453,-22.234375C-11.401713,-21.606173,-12.063341,-21.247557,-12.705566,-21.412598C-13.676148,-21.66651,-14.500235,-22.307386,-14.985352,-23.185547C-15.299938,-23.728794,-15.537405,-24.313177,-15.690918,-24.921875C-16.4953,-27.949051,-17.241913,-30.990639,-17.930664,-34.046387L-19.316895,-40.103516L-20.484863,-40.513672C-21.150709,-40.759056,-21.588928,-41.398376,-21.577637,-42.10791C-21.59304,-42.359428,-21.551834,-42.611252,-21.457031,-42.844727C-21.346588,-43.092243,-21.114637,-43.264133,-20.845703,-43.297852C-20.579266,-43.337822,-20.307272,-43.314919,-20.05127,-43.230957L-20.867188,-46.514648C-21.138355,-47.45129,-21.432224,-48.38126,-21.748535,-49.303711L-21.799805,-49.482422C-21.965515,-50.024033,-21.814194,-50.6124,-21.407715,-51.006836C-21.189875,-51.180237,-20.912672,-51.261253,-20.635742,-51.232422zM-16.459473,-38.475586C-15.503357,-33.783916,-14.429443,-29.118027,-13.238281,-24.480469L-12.438965,-28.141113C-11.815796,-30.999939,-11.195923,-33.881165,-10.588379,-36.742676L-10.563965,-36.889648C-12.56348,-37.688187,-14.578533,-38.449753,-16.606445,-39.17334L-16.459473,-38.475586zM-33.429199,-64.177734C-32.255955,-64.003693,-31.164976,-63.472271,-30.304688,-62.655762C-28.646301,-61.086746,-27.562233,-59.006645,-27.226074,-56.748535C-26.874977,-54.782642,-27.098251,-52.75724,-27.869141,-50.915039C-28.408642,-49.71093,-29.255154,-48.670303,-30.324219,-47.896973C-30.976349,-47.414188,-31.825317,-47.284576,-32.591797,-47.550781L-31.873047,-46.822266C-31.497423,-46.45842,-31.167856,-46.04998,-30.891602,-45.605957C-30.529011,-44.71373,-30.807844,-43.68969,-31.572754,-43.104492C-31.880402,-42.876701,-32.299324,-42.869797,-32.614258,-43.087402C-32.901871,-43.307526,-33.131626,-43.593876,-33.28418,-43.922363L-33.402344,-44.145996C-34.109051,-45.431934,-34.937756,-46.647034,-35.876953,-47.774414C-36.268677,-48.260132,-36.736694,-48.83667,-37.132324,-49.320801L-37.257324,-49.484863C-37.538124,-49.828606,-37.69669,-50.255993,-37.708008,-50.699707C-37.666965,-51.332428,-37.329075,-51.907574,-36.796387,-52.251465C-36.382454,-52.489212,-35.855518,-52.379116,-35.571289,-51.995605C-35.321472,-51.664669,-35.104637,-51.310154,-34.923828,-50.937012L-34.691895,-50.650879C-34.430809,-50.33514,-34.091106,-50.0938,-33.707031,-49.951172C-33.263557,-49.822945,-32.788986,-49.859158,-32.370117,-50.053223C-31.673801,-50.379562,-31.078743,-50.887741,-30.647461,-51.524414C-29.686195,-52.937325,-29.310108,-54.667595,-29.598145,-56.352051C-29.805637,-57.856907,-30.519611,-59.245945,-31.622559,-60.290527C-32.483459,-61.079582,-33.716263,-61.316151,-34.808105,-60.901855C-35.657207,-60.572269,-36.427017,-60.067154,-37.067383,-59.419434C-38.121979,-58.354542,-39.034584,-57.158024,-39.782715,-55.859375C-41.150032,-53.58181,-42.201649,-51.129028,-42.908691,-48.568359C-43.233128,-47.399654,-43.434906,-46.200279,-43.510742,-44.989746C-43.582531,-44.039295,-43.44981,-43.084316,-43.121582,-42.189453C-42.877068,-41.504692,-42.417599,-40.917076,-41.812012,-40.514648C-41.100178,-40.104881,-40.253788,-39.997932,-39.462402,-40.217773C-38.766708,-40.396767,-38.111801,-40.707565,-37.533203,-41.133301L-37.27002,-41.29834C-36.985886,-41.473106,-36.640217,-41.51722,-36.321289,-41.419434C-35.841717,-41.210548,-35.517197,-40.754005,-35.477539,-40.232422C-35.397007,-39.481918,-35.66938,-38.73658,-36.214844,-38.214844C-36.797367,-37.662884,-37.514046,-37.273067,-38.293945,-37.083984C-39.871128,-36.654491,-41.556236,-36.933201,-42.911133,-37.847656C-43.794842,-38.525345,-44.496693,-39.411388,-44.954102,-40.426758C-45.548729,-41.735043,-45.867046,-43.151958,-45.88916,-44.588867C-45.926071,-46.613285,-45.676872,-48.63269,-45.148926,-50.587402C-44.245216,-53.983917,-42.716957,-57.182163,-40.64209,-60.019043C-39.95565,-60.98069,-39.144833,-61.847336,-38.230957,-62.596191C-37.387535,-63.292732,-36.401661,-63.795925,-35.342773,-64.070313C-34.717033,-64.224037,-34.068214,-64.26046,-33.429199,-64.177734zM-37.439453,-88.641113C-37.065845,-88.618492,-36.733578,-88.395889,-36.570313,-88.059082C-36.442333,-87.766815,-36.389019,-87.447388,-36.415039,-87.129395C-36.418594,-86.439041,-36.76487,-85.795189,-37.338867,-85.411621L-37.826172,-85.076172C-39.692299,-83.757271,-41.540138,-82.413643,-43.370117,-81.044922L-43.321289,-79.895996L-43.276367,-78.76416C-43.210571,-77.356628,-43.133942,-75.946167,-43.046875,-74.539551L-42.991699,-73.326172C-41.192684,-73.718102,-39.403378,-74.153618,-37.625488,-74.632324C-37.512539,-74.664658,-37.400021,-74.698685,-37.288086,-74.734375L-37.085449,-74.791992C-36.766499,-74.893669,-36.421631,-74.877892,-36.113281,-74.747559C-35.80024,-74.57058,-35.584557,-74.2612,-35.526855,-73.90625C-35.391422,-73.340553,-35.471893,-72.744904,-35.752441,-72.235352C-36.037262,-71.786102,-36.502537,-71.482002,-37.02832,-71.401367C-39.692833,-70.88504,-42.361923,-70.404144,-45.039063,-69.958008L-47.649414,-69.492188C-51.36784,-68.827332,-55.075153,-68.092468,-58.766113,-67.288574L-58.950195,-67.269043C-59.609779,-67.200676,-60.211334,-67.653,-60.328613,-68.305664C-60.500977,-69.293816,-60.26115,-70.309494,-59.665039,-71.116211C-59.301929,-71.628311,-58.869415,-72.087463,-58.379883,-72.480469C-55.962326,-74.471672,-53.506454,-76.416985,-51.014648,-78.314453L-46.083984,-82.095703L-46.197266,-83.328613C-46.251614,-84.036118,-45.852638,-84.700714,-45.202637,-84.985352C-44.980457,-85.104393,-44.734253,-85.171852,-44.482422,-85.182617C-44.211395,-85.185219,-43.958454,-85.045959,-43.815918,-84.81543C-43.668995,-84.589516,-43.576572,-84.332672,-43.545898,-84.064941L-40.899902,-86.173828C-40.161102,-86.81012,-39.437927,-87.464264,-38.730957,-88.135742L-38.589355,-88.256348C-38.268833,-88.526001,-37.857712,-88.663544,-37.439453,-88.641113zM-46.375488,-78.820313C-50.243256,-75.998291,-54.03952,-73.07959,-57.760742,-70.066895L-54.099121,-70.863281C-51.256866,-71.483032,-48.347015,-72.12561,-45.507813,-72.760254L-45.36377,-72.799316C-45.469925,-74.950249,-45.616074,-77.098602,-45.802246,-79.244141L-46.375488,-78.820313zM-49.143555,-114.577637C-48.959175,-114.567024,-48.775585,-114.545509,-48.59375,-114.513184L-46.159668,-114.11377C-42.320965,-113.475189,-38.471844,-112.911591,-34.611328,-112.422852C-32.352936,-112.16069,-30.08807,-111.95929,-27.818848,-111.818848L-26.900391,-111.75293C-26.426243,-111.740479,-25.954754,-111.677132,-25.494141,-111.563965C-24.979704,-111.451263,-24.649984,-110.946457,-24.753906,-110.430176C-24.991524,-109.590279,-25.678064,-108.954353,-26.533691,-108.781738C-26.750313,-108.746635,-26.971109,-108.745819,-27.187988,-108.779297L-28.121094,-108.915039L-29.463379,-109.105469C-33.37817,-109.661438,-37.282185,-110.274902,-41.178711,-110.946289L-42.074219,-111.086914C-44.027924,-111.380615,-45.785065,-111.642822,-47.739258,-111.931641C-47.862526,-111.95517,-47.986862,-111.97274,-48.111816,-111.984375C-45.028931,-110.325195,-41.826538,-108.59668,-38.75,-106.931641L-38.134766,-106.607422C-36.794556,-105.910645,-35.40625,-105.191406,-34.064453,-104.499023L-33.671387,-104.288574C-33.317955,-104.139969,-33.015747,-103.890564,-32.802734,-103.571777C-32.671932,-103.279755,-32.683437,-102.94397,-32.833984,-102.661621C-33.054459,-102.158157,-33.502403,-101.790039,-34.039063,-101.671387C-34.40332,-101.580795,-34.776997,-101.533745,-35.152344,-101.53125L-42.414551,-101.358398L-46.636719,-101.248047C-49.485619,-101.171021,-52.320885,-101.1073,-55.17041,-101.056152C-49.852898,-99.419037,-44.504936,-97.873383,-39.133789,-96.421387C-38.113083,-96.185425,-37.096405,-95.955688,-36.07373,-95.72998L-35.884766,-95.680664C-35.529274,-95.624374,-35.198231,-95.463264,-34.93457,-95.218262C-34.669102,-94.908875,-34.618298,-94.469223,-34.806152,-94.107422C-35.081718,-93.444061,-35.656719,-92.951347,-36.354492,-92.780762C-36.779133,-92.697723,-37.218704,-92.7491,-37.612793,-92.927734C-37.746735,-92.979843,-37.879845,-93.033859,-38.012207,-93.089844L-38.796875,-93.407227C-40.652649,-94.115501,-42.547142,-94.717873,-44.471191,-95.211426L-45.912109,-95.622559C-47.721199,-96.158264,-49.53019,-96.701843,-51.334473,-97.251953L-52.887207,-97.700195L-54.606445,-98.189453C-55.784264,-98.499786,-56.952148,-98.847496,-58.10791,-99.231934C-58.534847,-99.372948,-58.911114,-99.636047,-59.189941,-99.98877C-59.479065,-100.401466,-59.502575,-100.944839,-59.25,-101.380859C-58.812546,-102.251099,-57.985245,-102.860382,-57.024414,-103.02002C-56.7075,-103.083694,-56.385246,-103.117058,-56.062012,-103.119629L-37.256348,-103.446777L-38.646973,-104.162598C-42.661163,-106.220276,-46.653717,-108.302795,-50.638672,-110.41748C-51.119545,-110.668549,-51.566128,-110.98053,-51.967285,-111.345703C-52.215733,-111.569183,-52.351063,-111.892227,-52.336426,-112.226074C-52.246361,-112.684494,-52.035625,-113.110001,-51.725586,-113.459473C-51.107918,-114.242645,-50.137325,-114.662994,-49.143555,-114.577637z" />
</svg>