<svg xmlns="http://www.w3.org/2000/svg" xmlns:xlink="http://www.w3.org/1999/xlink" width="375" height="190" viewBox="0 0 375 190">
  <path d="M23.54 65.09L23.54 65.09Q24.90 65.72 26.22 65.87L26.22 65.87Q26.71 65.72 26.71 65.53L26.71 65.53Q27.05 65.72 28.66 65.87L28.66 65.87L28.66 66.02Q28.66 66.31 28.22 66.31L28.22 66.31L28.22 67.04L28.66 68.55L28.66 68.75Q27.83 68.75 27.59 71.78L27.59 71.78L27.73 72.07Q27.29 72.71 27.15 75.54L27.15 75.54Q27.34 76.51 27.59 77.20L27.59 77.20Q27.25 79.00 27.00 79.79L27.00 79.79L27.15 81.30L27.15 83.11Q27.15 83.84 27.00 84.62L27.00 84.62Q27.44 87.16 27.44 91.60L27.44 91.60Q27.44 91.94 27.59 92.19L27.59 92.19Q27.25 99.17 26.07 99.17L26.07 99.17Q26.07 99.37 23.54 99.90L23.54 99.90Q23.54 100.10 22.90 100.20L22.90 100.20Q19.63 99.46 19.14 99.46L19.14 99.46L18.51 98.39L18.65 96.58Q18.36 96.58 18.36 96.29L18.36 96.29L18.36 96.00Q18.36 95.46 19.43 92.97L19.43 92.97Q20.12 90.43 20.51 80.66L20.51 80.66Q20.31 80.37 20.31 80.22L20.31 80.22Q12.74 81.30 12.01 81.30L12.01 81.30L12.01 82.03Q9.57 93.36 9.57 95.36L9.57 95.36L9.91 95.51L10.06 95.51Q10.35 95.51 10.35 95.07L10.35 95.07L10.50 95.07L10.50 95.51Q10.21 96.00 10.21 96.44L10.21 96.44Q10.21 97.51 11.08 97.51L11.08 97.51L11.08 97.95Q8.54 98.54 8.54 99.32L8.54 99.32L8.06 99.32Q8.06 98.73 4.30 98.54L4.30 98.54Q3.86 96.88 3.22 95.51L3.22 95.51L3.22 95.21Q4.59 92.72 7.18 77.34L7.18 77.34Q7.18 76.46 7.62 72.95L7.62 72.95L7.62 69.04L7.18 68.26Q7.57 67.04 8.20 67.04L8.20 67.04Q8.40 66.46 9.13 66.46L9.13 66.46Q10.35 67.04 10.79 67.04L10.79 67.04L12.74 67.04Q13.04 67.04 13.53 68.90L13.53 68.90Q13.96 68.90 13.96 69.34L13.96 69.34Q13.96 70.80 12.60 71.00L12.60 71.00Q12.60 72.80 12.16 72.80L12.16 72.80Q12.16 73.63 12.30 75.39L12.30 75.39L12.01 76.12Q12.11 77.00 12.45 77.49L12.45 77.49L13.23 77.34Q13.38 77.34 13.38 77.49L13.38 77.49L13.67 77.34L14.89 77.34Q21.09 77.00 21.09 76.12L21.09 76.12L21.53 68.41L21.09 67.68Q21.24 67.38 21.24 67.04L21.24 67.04L21.09 67.04Q22.36 65.53 23.54 65.09ZM57.71 66.16L58.15 65.53Q60.89 65.53 60.89 67.38L60.89 67.38Q60.89 67.53 60.30 68.26L60.30 68.26Q60.45 69.34 60.45 69.48L60.45 69.48Q60.06 71.00 59.08 71.00L59.08 71.00Q57.91 70.56 57.42 70.56L57.42 70.56Q55.18 71.63 49.22 72.22L49.22 72.22L47.85 72.07Q47.56 72.07 46.83 72.36L46.83 72.36Q46.53 72.22 45.46 72.07L45.46 72.07Q43.70 72.07 42.29 73.10L42.29 73.10L42.43 73.44L42.43 74.17Q42.43 74.90 42.29 75.68L42.29 75.68Q42.58 76.90 42.58 78.27L42.58 78.27L42.58 78.71L44.09 78.71Q45.36 78.71 46.04 78.42L46.04 78.42L46.97 78.56Q56.79 77.83 56.79 77.20L56.79 77.20Q57.57 76.76 58.01 76.76L58.01 76.76L59.08 76.76Q59.67 76.76 59.81 79.64L59.81 79.64Q60.01 79.64 60.11 80.22L60.11 80.22Q59.91 81.35 58.79 82.18L58.79 82.18Q58.20 81.88 57.57 81.88L57.57 81.88Q56.54 82.81 55.42 82.81L55.42 82.81Q54.44 82.52 54.05 82.52L54.05 82.52Q53.03 82.81 52.88 82.81L52.88 82.81L51.03 82.81Q50.73 82.86 50.73 83.11L50.73 83.11Q48.97 82.81 48.63 82.81L48.63 82.81Q48.63 83.01 48.19 83.25L48.19 83.25L47.27 83.25Q46.78 83.25 46.48 83.40L46.48 83.40L45.61 83.25L44.09 83.25Q43.07 83.25 41.36 84.47L41.36 84.47Q41.36 86.38 39.70 92.19L39.70 92.19L39.99 92.33Q39.99 91.70 49.71 90.97L49.71 90.97Q49.71 90.82 51.03 90.82L51.03 90.82L53.91 90.82Q55.62 90.82 57.57 91.26L57.57 91.26Q60.06 89.60 61.62 89.60L61.62 89.60L61.96 90.23Q61.62 90.77 61.62 91.46L61.62 91.46L61.62 91.75Q62.26 93.31 62.40 94.48L62.40 94.48Q62.01 96.44 61.47 96.44L61.47 96.44Q61.33 96.44 59.08 95.51L59.08 95.51Q58.94 96.29 58.79 96.29L58.79 96.29Q55.37 96.00 54.54 96.00L54.54 96.00Q54.00 96.00 53.17 96.14L53.17 96.14Q52.39 96.00 51.37 96.00L51.37 96.00L50.88 96.00Q47.56 96.29 45.31 96.88L45.31 96.88Q44.48 96.73 44.09 96.73L44.09 96.73Q42.19 97.51 42.14 97.51L42.14 97.51Q39.55 97.02 37.74 97.02L37.74 97.02Q36.62 97.51 35.89 97.51L35.89 97.51Q33.74 95.31 33.35 94.48L33.35 94.48Q36.23 86.87 36.23 82.52L36.23 82.52Q37.26 79.00 37.26 72.80L37.26 72.80L37.26 72.07Q37.26 70.12 36.52 69.48L36.52 69.48L36.52 69.19Q36.52 69.09 38.48 66.60L38.48 66.60Q38.48 66.41 39.11 65.87L39.11 65.87Q40.09 66.89 43.80 67.53L43.80 67.53Q43.80 67.82 44.53 67.82L44.53 67.82L45.90 67.82Q52.34 66.60 57.71 66.16L57.71 66.16ZM73.49 63.43L73.49 63.43Q74.51 64.40 78.76 65.43L78.76 65.43Q79.98 66.11 79.98 67.53L79.98 67.53L79.98 67.68Q79.98 69.38 77.25 69.78L77.25 69.78L76.95 70.26L76.95 71.29Q75.59 76.71 75.59 79.20L75.59 79.20L75.73 80.57L74.85 85.40L75 86.13Q74.22 91.50 74.22 92.04L74.22 92.04L74.37 92.04Q77.00 92.04 87.11 91.89L87.11 91.89Q88.18 92.04 88.33 92.04L88.33 92.04Q90.77 90.38 91.65 90.38L91.65 90.38L91.94 90.38Q92.24 90.97 92.38 90.97L92.38 90.97Q92.24 92.48 92.24 93.26L92.24 93.26L92.24 93.70Q92.24 94.53 92.68 96.00L92.68 96.00Q92.68 96.58 91.50 97.51L91.50 97.51Q90.72 97.51 90.72 97.22L90.72 97.22L89.21 97.36L87.26 97.36Q85.55 97.36 82.86 97.22L82.86 97.22L82.57 97.36Q82.03 97.22 81.93 97.22L81.93 97.22Q78.81 97.51 76.81 97.51L76.81 97.51L75.73 97.51Q75 97.51 73.19 97.95L73.19 97.95L71.68 97.80Q69.82 98.24 69.82 98.39L69.82 98.39Q69.63 98.39 68.02 96.00L68.02 96.00Q66.65 94.97 66.65 94.19L66.65 94.19Q66.65 93.75 67.58 92.04L67.58 92.04Q67.58 91.11 68.80 89.31L68.80 89.31Q71.19 78.32 71.19 68.60L71.19 68.60Q71.34 68.60 71.34 67.82L71.34 67.82L70.46 67.09Q70.65 66.31 72.85 64.50L72.85 64.50Q72.85 63.43 73.49 63.43ZM103.71 63.43L103.71 63.43Q104.74 64.40 108.98 65.43L108.98 65.43Q110.21 66.11 110.21 67.53L110.21 67.53L110.21 67.68Q110.21 69.38 107.47 69.78L107.47 69.78L107.18 70.26L107.18 71.29Q105.81 76.71 105.81 79.20L105.81 79.20L105.96 80.57L105.08 85.40L105.22 86.13Q104.44 91.50 104.44 92.04L104.44 92.04L104.59 92.04Q107.23 92.04 117.33 91.89L117.33 91.89Q118.41 92.04 118.55 92.04L118.55 92.04Q121.00 90.38 121.88 90.38L121.88 90.38L122.17 90.38Q122.46 90.97 122.61 90.97L122.61 90.97Q122.46 92.48 122.46 93.26L122.46 93.26L122.46 93.70Q122.46 94.53 122.90 96.00L122.90 96.00Q122.90 96.58 121.73 97.51L121.73 97.51Q120.95 97.51 120.95 97.22L120.95 97.22L119.43 97.36L117.48 97.36Q115.77 97.36 113.09 97.22L113.09 97.22L112.79 97.36Q112.26 97.22 112.16 97.22L112.16 97.22Q109.03 97.51 107.03 97.51L107.03 97.51L105.96 97.51Q105.22 97.51 103.42 97.95L103.42 97.95L101.90 97.80Q100.05 98.24 100.05 98.39L100.05 98.39Q99.85 98.39 98.24 96.00L98.24 96.00Q96.88 94.97 96.88 94.19L96.88 94.19Q96.88 93.75 97.80 92.04L97.80 92.04Q97.80 91.11 99.02 89.31L99.02 89.31Q101.42 78.32 101.42 68.60L101.42 68.60Q101.56 68.60 101.56 67.82L101.56 67.82L100.68 67.09Q100.88 66.31 103.08 64.50L103.08 64.50Q103.08 63.43 103.71 63.43ZM140.38 65.48L140.38 65.48Q143.70 66.26 144.43 66.26L144.43 66.26Q147.27 66.26 148.97 68.07L148.97 68.07Q149.37 68.07 149.76 69.14L149.76 69.14Q152.59 71.34 154.15 79.74L154.15 79.74Q154.30 81.59 154.30 81.84L154.30 81.84Q154.30 88.09 148.54 95.61L148.54 95.61Q147.36 97.85 143.70 98.93L143.70 98.93Q141.31 99.56 140.53 99.56L140.53 99.56L140.09 99.56Q137.11 99.56 132.52 95.61L132.52 95.61Q129.30 92.68 129.30 90.77L129.30 90.77Q128.52 89.75 127.78 86.67L127.78 86.67Q127.78 76.22 130.52 72.17L130.52 72.17Q131.30 69.24 134.33 67.14L134.33 67.14Q135.30 66.36 139.31 65.82L139.31 65.82Q139.31 65.48 140.38 65.48ZM135.06 80.47L135.06 80.47L135.06 83.98Q136.52 91.85 140.23 91.85L140.23 91.85L140.67 91.85Q145.17 91.85 146.73 86.38L146.73 86.38Q147.80 83.11 147.80 82.62L147.80 82.62L147.80 80.62Q146.34 72.17 145.07 72.17L145.07 72.17Q143.41 70.36 142.63 70.36L142.63 70.36Q141.80 70.36 140.38 70.80L140.38 70.80L140.23 70.80L139.60 70.36L139.16 70.36Q135.06 72.80 135.06 80.47Z"   />
</svg>

